Coordinates
version=1
nRows=26
nColumns=24
inDegrees=yes

Units are S.I. units (second, meters, Newtons, ...)
Angles are in degrees.

endheader
time	pelvis_tilt	pelvis_list	pelvis_rotation	pelvis_tx	pelvis_ty	pelvis_tz	hip_flexion_r	hip_adduction_r	hip_rotation_r	knee_angle_r	ankle_angle_r	subtalar_angle_r	mtp_angle_r	hip_flexion_l	hip_adduction_l	hip_rotation_l	knee_angle_l	ankle_angle_l	subtalar_angle_l	mtp_angle_l	lumbar_extension	lumbar_bending	lumbar_rotation
      6.34000000	      7.76762154	     -3.19068049	     -2.03661029	     -1.03560830	      0.73403441	      0.28736096	    -21.62486080	      4.86608756	     10.79696401	    -11.71043932	     20.38311529	    -12.06574090	      0.00000000	     11.37539179	     -5.40809376	      2.77897032	      3.08426245	      3.65864818	    -12.36625030	      0.00000000	    -27.60341332	     -0.53354136	      2.83000175
      6.35000000	      8.05210754	     -3.00508251	     -2.55621507	     -1.02252155	      0.73314890	      0.28590482	    -22.28705699	      4.33397464	     11.64594568	    -13.08937668	     19.91784854	    -12.19780171	      0.00000000	     10.75381016	     -5.22236348	      2.78857540	      2.81057689	      2.51321033	    -13.23391721	      0.00000000	    -27.58923867	     -0.90478941	      2.98948899
      6.36000000	      8.34653098	     -2.68649307	     -3.07243683	     -1.00935446	      0.73244988	      0.28427434	    -22.70298943	      3.71072961	     12.31850793	    -14.89717142	     19.39477176	    -12.37007035	      0.00000000	     10.13719298	     -4.81057847	      3.04915015	      2.11455397	      0.46347333	    -15.09586353	      0.00000000	    -27.57324502	     -1.38238595	      3.11639522
      6.37000000	      8.55857339	     -2.21673167	     -3.54657786	     -0.99608474	      0.73185613	      0.28245405	    -22.72354842	      3.00823244	     12.64381253	    -17.20378224	     18.55189962	    -12.54159768	      0.00000000	      9.60618686	     -4.16113138	      3.40534979	      1.17894873	     -2.25137952	    -17.50454846	      0.00000000	    -27.42920935	     -1.96853354	      3.10578284
      6.38000000	      8.82793539	     -1.58033638	     -4.01629455	     -0.98282722	      0.73154318	      0.28051810	    -22.49008700	      2.19016445	     12.67330110	    -19.97373400	     17.40386387	    -12.79312991	      0.00000000	      9.07915143	     -3.26571150	      3.55089618	     -0.00705756	     -5.08082772	    -19.91251503	      0.00000000	    -27.35360417	     -2.71335279	      3.06446461
      6.39000000	      9.09778906	     -0.78928593	     -4.46248622	     -0.96967338	      0.73145970	      0.27849552	    -21.90485997	      1.27857361	     12.40764628	    -23.22703826	     15.78037567	    -13.20566374	      0.00000000	      8.64369112	     -2.15645764	      3.45806332	     -1.39289682	     -7.53280667	    -22.03638901	      0.00000000	    -27.29220635	     -3.59818141	      2.95625887
      6.40000000	      9.39489516	      0.16623896	     -4.88223159	     -0.95672393	      0.73162713	      0.27642031	    -20.98610984	      0.24295017	     11.87510757	    -26.92766207	     13.57203192	    -13.81344543	      0.00000000	      8.32047617	     -0.83713305	      3.04281671	     -3.01283699	     -9.02855666	    -23.52514672	      0.00000000	    -27.29601124	     -4.64219858	      2.76761549
      6.41000000	      9.77237336	      1.30497696	     -5.29991583	     -0.94405565	      0.73204967	      0.27434066	    -19.76648463	     -0.99911425	     11.04518953	    -31.05433702	     10.94435007	    -14.34228280	      0.00000000	      8.05542191	      0.69538194	      2.29493227	     -4.85088402	     -9.29505614	    -24.27766026	      0.00000000	    -27.43503495	     -5.88337527	      2.49476754
      6.42000000	     10.02333567	      2.39322738	     -5.68876442	     -0.93174936	      0.73252864	      0.27232419	    -18.14338850	     -2.10271615	     10.45669570	    -35.41042892	      7.17761192	    -15.67465651	      0.00000000	      8.04302271	      2.15626754	      1.58692564	     -6.89338105	     -8.57201769	    -24.67161453	      0.00000000	    -27.49153050	     -7.04924627	      2.27653364
      6.43000000	     10.37200847	      3.50059150	     -6.07077133	     -0.91980723	      0.73322906	      0.27041898	    -16.35286942	     -3.23738886	      9.86714287	    -39.92786664	      2.85455083	    -17.16639762	      0.00000000	      8.05710738	      3.59779161	      0.32470927	     -9.12979228	     -6.60332181	    -23.86399379	      0.00000000	    -27.72535499	     -8.24308400	      1.98566061
      6.44000000	     10.63819907	      4.51063569	     -6.51686791	     -0.90820728	      0.73394640	      0.26869925	    -14.19751000	     -4.30179433	      9.39624248	    -44.56482026	     -1.78657197	    -18.49464732	      0.00000000	      8.08183053	      4.86754085	     -1.05842722	    -11.22433060	     -4.08280258	    -22.46620521	      0.00000000	    -27.89595481	     -9.35480867	      1.87842842
      6.45000000	     10.89889542	      5.34531178	     -6.96227934	     -0.89688796	      0.73475291	      0.26710500	    -11.90383842	     -5.14009566	      9.16069583	    -49.09217415	     -6.60111011	    -19.99404653	      0.00000000	      7.88749987	      5.95541613	     -2.04411665	    -12.93918332	     -1.63792532	    -21.51026402	      0.00000000	    -28.09678821	    -10.26951141	      1.78055819
      6.46000000	     11.15347694	      6.02791138	     -7.52144105	     -0.88581580	      0.73570702	      0.26575378	     -9.45704566	     -5.83238601	      9.12613383	    -53.45783992	    -11.09979017	    -21.15572568	      0.00000000	      7.42709980	      6.84485939	     -3.20386736	    -14.14432082	      0.64779294	    -20.19338738	      0.00000000	    -28.28815529	    -11.06462440	      1.86990270
      6.47000000	     11.37528918	      6.52008212	     -8.15219247	     -0.87493517	      0.73675195	      0.26456713	     -6.92638875	     -6.27422413	      9.30483314	    -57.52879951	    -14.89859841	    -22.15494724	      0.00000000	      6.68939341	      7.57082095	     -4.08295136	    -14.78991554	      2.49834034	    -19.44532607	      0.00000000	    -28.43193514	    -11.67011808	      2.07480131
      6.48000000	     11.56354491	      6.82582609	     -8.82064861	     -0.86419285	      0.73793223	      0.26351245	     -4.38961440	     -6.44841208	      9.61696404	    -61.20016070	    -17.70378640	    -22.90375807	      0.00000000	      5.69874988	      8.14136011	     -4.79635353	    -14.91790253	      3.93979168	    -18.98048857	      0.00000000	    -28.52613690	    -12.07752147	      2.35223406
      6.49000000	     11.68320021	      6.99767855	     -9.45140583	     -0.85352241	      0.73920692	      0.26248647	     -1.86776184	     -6.42069384	      9.90478259	    -64.41094551	    -19.20380972	    -23.23844137	      0.00000000	      4.52948401	      8.63264001	     -5.20227442	    -14.59410682	      4.83853660	    -18.98788101	      0.00000000	    -28.52887983	    -12.30765518	      2.62952561
      6.50000000	     11.82119899	      6.95592018	    -10.00063021	     -0.84288145	      0.74070166	      0.26151551	      0.41605319	     -6.06792140	     10.15846587	    -67.03573347	    -19.40381814	    -23.46202424	      0.00000000	      3.16968143	      8.94087949	     -5.44014811	    -14.02031943	      5.66527560	    -19.03108786	      0.00000000	    -28.56643513	    -12.26958174	      2.89519408
      6.51000000	     11.82301808	      6.76639401	    -10.35745523	     -0.83228221	      0.74224011	      0.26051197	      2.63918455	     -5.46679367	     10.21668867	    -69.11446110	    -18.30310054	    -23.20654024	      0.00000000	      1.90987265	      9.07485381	     -5.55300438	    -13.41763296	      6.38097961	    -18.96332279	      0.00000000	    -28.48496826	    -11.99131606	      3.03934406
      6.52000000	     11.83794967	      6.43656296	    -10.46626901	     -0.82165588	      0.74398679	      0.25941645	      4.58296566	     -4.70822048	      9.95988651	    -70.57918656	    -15.89423431	    -22.38482690	      0.00000000	      0.55437186	      9.06662017	     -5.40735168	    -12.74052914	      7.01198184	    -18.88390899	      0.00000000	    -28.47362647	    -11.47100375	      2.99271923
      6.53000000	     11.82037556	      6.07738248	    -10.35913819	     -0.81101321	      0.74580140	      0.25825362	      6.36955268	     -3.93995281	      9.42472563	    -71.50864484	    -12.55549183	    -21.05986267	      0.00000000	     -0.79727398	      8.99999980	     -5.10256411	    -12.03029667	      7.52430025	    -18.79762447	      0.00000000	    -28.45570362	    -10.83971167	      2.78277235
      6.54000000	     11.78413625	      5.63226209	    -10.04161146	     -0.80040738	      0.74768117	      0.25706784	      7.98367815	     -3.09112660	      8.66048081	    -71.92207127	     -8.71439733	    -19.30258741	      0.00000000	     -2.14120326	      8.79678489	     -4.63179763	    -11.33843503	      7.99453997	    -18.66458993	      0.00000000	    -28.47293388	    -10.05626325	      2.39874604
      6.55000000	     11.74383260	      5.13807273	     -9.54187055	     -0.78984565	      0.74956567	      0.25584887	      9.44630090	     -2.24520490	      7.68339498	    -71.86530095	     -4.80156198	    -17.33479932	      0.00000000	     -3.48897433	      8.48750369	     -4.07792319	    -10.64302648	      8.43399796	    -18.44674618	      0.00000000	    -28.53314560	     -9.16601547	      1.87573360
      6.56000000	     11.69493795	      4.63580853	     -8.93140112	     -0.77936063	      0.75135531	      0.25463904	     10.80443435	     -1.45268744	      6.57948639	    -71.39865117	     -1.17038721	    -15.44370664	      0.00000000	     -4.82078148	      8.11754222	     -3.48952903	     -9.93987436	      8.84447525	    -18.18297964	      0.00000000	    -28.61817976	     -8.23815632	      1.24676365
      6.57000000	     11.63793307	      4.13466090	     -8.23554078	     -0.76895119	      0.75298593	      0.25344385	     12.06226169	     -0.73982864	      5.37168491	    -70.54617829	      1.92698479	    -13.92421327	      0.00000000	     -6.12766884	      7.69752927	     -2.90059935	     -9.23554162	      9.22763636	    -17.89563955	      0.00000000	    -28.71970929	     -7.29654183	      0.58716357
      6.58000000	     11.57579812	      3.65619900	     -7.51729794	     -0.75864755	      0.75439452	      0.25229682	     13.23301446	     -0.11770069	      4.14765287	    -69.34362777	      4.39302969	    -12.95114324	      0.00000000	     -7.39865464	      7.26216111	     -2.33445389	     -8.54189847	      9.59069871	    -17.60395030	      0.00000000	    -28.83879933	     -6.37973599	     -0.10059828
      6.59000000	     11.50391495	      3.21647611	     -6.79588170	     -0.74845387	      0.75553290	      0.25120000	     14.31661645	      0.40341017	      2.94254561	    -67.80208602	      6.21355054	    -12.65708185	      0.00000000	     -8.61038495	      6.83501871	     -1.79281159	     -7.88824497	      9.95704331	    -17.33218559	      0.00000000	    -28.96994661	     -5.51078086	     -0.78382898
